<svg xmlns="http://www.w3.org/2000/svg" width="129" height="40" fill="none"><path fill="#06F" fill-rule="evenodd" d="M10.424 2.602c.246.35 1.419.82 1.87 1.062 2.437 1.302 1.869 1.037 1.182 2.707-.876 2.132-1.218 2.222-3.084 3.096-1.156.54-2.224.415-3.641.411-.439 0-1.707.022-2.064-.05-.739-.15-.406-.774-1.25-.939C2.387 10.736 1.637 11.866 1 14.132c-.387 1.377-1.35 5.343-.87 6.784.027.016.072 0 .086.034.014.033.066.025.086.028.62.077 3.1-1.005 3.44-.952.197.03 3.672 3.672 4.16 4.168.244.249.424.36.598.695.071.625-3.127 2.299-.48 5.053l2.728 2.74c.352.335.63.608.412 1.24-.664.48-2.14-.001-2.92-.112-.577-.082-.968-.164-1.493-.255l-1.164-.176c-.03.004-.065.014-.092.018-.026.005-.07.02-.09.026a.533.533 0 0 0-.092.03c.443 1.259 5.1 4.21 6.447 4.77 1.46.61 2.532 1.026 4.224 1.373 1.867.383.294.207 2.454.331 1.849.106 3.005.152 5.08-.264.701-.14 1.515-.345 2.214-.567 1.12-.357 2.914-1.127 3.879-1.708 1.38-.831 5.592-4.032 5.799-5.446-1.16-1.279-.38.992-2.317-2.796-1.337-2.613.092-3.15-.823-4.211l-1.948-1.882c-3.74-3.179-4.183.416-2.205-7.245.066-.255.194-.764.294-.986.229-.507.232-.38.69-.591.61-.283 1.149-.557 1.796-.88 1.073-.533 3.268-.62 4.365-.12.525.24 1.182.514 1.74.819.625.342 1.27.844 1.828.905-.348-3.079-2.9-6.9-5.116-9.193C30.221 2.15 24.583-.14 19.362.007c-2.347.065-5.02.6-7.076 1.516-.51.228-1.641.548-1.862 1.079ZM5.131 8.574c.6.147 1.96.067 2.661.074 1.328.012 1.237.1 2.271-.46.509-.276 1.363-.556 1.657-1.01.285-.439.792-1.291.783-1.878-.765-.633-2.64-1.326-3.196-1.664-.365-.221-.258-.38-.716-.132L5.46 6.339c-.82.84-1.215 1.151-.801 1.656.19.231.237.266.471.58Zm3.243 23.814c-.162-.633-.771-.92-1.299-1.49-1.28-1.38-1.614-2.061-1.313-4.2.14-.99.939-1.13 1.086-1.809-.032-.28-2.194-2.193-2.669-2.671-1.18-1.192-.454-.759-2.312-.16-.262.085-1.234.38-1.364.484-.04.031-.224-.057-.146.493.358 2.534 1.994 6.934 3.352 8.459.405.454.85.332 1.45.412 1.094.147 2.144.399 3.215.482Zm20.151-11.956c1.785 1.026 1.434.447 3.331 2.358.455.458 1.032.993 1.429 1.479 1.315 1.614-.347 1.839 1.238 4.835.537 1.016.636.833 1.227 1.459.452.48.533.82 1.282-.784 1.61-3.445 2.801-6.593 2.415-10.916-.22-2.454.398-2.03-3.962-4.114-.95-.454-1.061-.59-2.238-.581-.943.007-1.498.044-2.276.444-.797.41-1.239.556-1.506 1.279-.3.809-1.06 3.745-.94 4.54Zm21.58 5.865.026 9.736.669.376c.593.34.221.214.498.797.26.07.07-.073.311.02.308.116.316.305.38.332 1.268 0 2.746.07 3.945-.105 1.427-.209 3.09-1.069 3.876-2.175.288-.406.558-.776.832-1.262.51-.9.95-2.018.95-3.262.002-1.751-.082-2.607-.752-4.041-.398-.852-1.566-2.212-2.135-2.65-.216-.165-1.247-.672-1.515-.811-1.116-.581-5.478-.359-6.964-.356l-.12 3.4Zm.35-23.829c-.05.13-.084 2.511-.03 2.913.264-.157.198-.243.216-.322.096-.418-.361.34.017-.095.287-.33.3 1.065.175 1.394-.529-.274-.033-.266-.435-.693.164 2.675-.265 5.112.13 7.728.385.195.707-.416.71 1.701.484.092.336.017.281.536l.45-.153c.228.046.384.489.425.79.543.044.012.033.47-.124l.166.508c.13-.135.307-.752 1.63-.215.838.34-.062.476.57.594.773.144.487-.25.578-.41 1.318-.101.226.41 1.157.41l3.905-.023v-2.529l-2.98-.029c-1.083 0-.818.07-1.505.432-.535-.136.139-.128-.691-.223-2.286-.26-2.112-.722-2.112-.722l-.17-.802c-.189-.865.08-4.61-.083-5.204-.13-.472.04-.143-.276-.402.02-.016.056-.061.063-.043.007.018.05-.036.059-.048.27-.352.044.14.175-2.138l-.045-1.687c-.19-.76-.036-.654-.267-1.231-.565-.02-2.178-.088-2.583.087ZM64.31 23.775l-.226.296c-.304.246-.165-.032-.273-.003l.157.72c.064.064.097.103.18.218-.188.714.218-.57-.108.24-.129.32-.063-.24-.1.289 1.048.212 2.19-.097 3.263.234.004 1.922-.073 3.898-.01 5.806.035 1.065.364 2.627-.972 3.241-.319.147.02-.021-.456.07-.026.005-.063.007-.089.014-.025.008-.06.016-.083.026l-.3.292c-.24-.414-.016-.2-.326-.33-.43.844-.466.48-.83.463-.005.03.008.086.006.093-.1.358-.144.008-.35.12.126.473-.125.2.35.36-.339.68.361-.495-.153.184-.13.17-.085-.082-.143.219l.897.915a1.553 1.553 0 0 1-.153-.003c-.385-.03-.403-.222-.245.232.862.343 1.214-.238 1.45-.305.14-.04.647.012.735.033.499.119.291.136 1.004.147l-.078.146c.385-.496.542-.322 1.2-.374.197.418-.125-.45.041.187l.608.233c-.09-.355-.064-.18-.317-.45 1.395 0 .074.275.817.47.257-.004.516-.058.699-.059l1.73.06c.658-.129.035.096.463-.449l.082.16c.155.226-.04.068.148.2.11.077-.133.07.224.066.543-.008.058.026.284-.087.112-.36.173-2.114.117-2.517l-3.298.033c-.46-.726-.04-.313-.312-.825-.012-.023-.036-.055-.049-.075l-.123-.143c.19-.178.264-.187.291-.586.023-.326-.106-.479-.103-1.07l.004-.055-.036-.193c-.175-.69-.064-.234.035-.831.25-1.495-.003-2.888.127-4.032.29-2.561 2.809-1.108 3.407-1.67l.058-.171c.027-.14.033-.134.045-.303l-.003-2.088H69.14c-1.216.063-.857-.161-1.069.293l-.231-.314c-1.177.14-1.048-.087-2.161.4-.814.355-.384-.415-1.16.198-.218.172-.3-.023-.208.275Zm25.917 0-.226.296c-.256.207.202.02-.11.018-.41-.002.094-.09-.164-.021l-.043.586.38.352c-.188.714.218-.57-.107.24-.129.32-.064-.24-.1.289 1.048.212 2.19-.097 3.262.234.005 1.922-.072 3.898-.01 5.806.035 1.064.365 2.627-.972 3.241-.252.116-.449-.005-.702.149l-.224.253c-.24-.414-.017-.2-.327-.33-.43.843-.466.48-.83.463-.005.03.008.085.006.093-.101.358-.144.008-.35.12.126.473-.125.199.35.36-.338.677.358-.492-.153.184-.129.17-.085-.082-.144.219l.837.839c.015.017.043.049.061.075l-.224-.009c-.248-.016-.34-.233-.174.239.86.343 1.214-.238 1.45-.306.393-.112.929.17 1.739.18l-.078.147c.384-.496.543-.322 1.2-.374l.108.397.542.023c-.09-.355-.064-.18-.318-.45 1.395 0 .074.274.817.47.257-.004.516-.058.7-.059l1.73.059c.657-.128.035.097.463-.448l.08.159c.156.227-.039.069.15.2.11.078-.134.071.223.066.543-.007.058.027.285-.086.111-.36.172-2.115.116-2.517l-3.298.033c-.134-.211.011.066-.13-.198-.211-.395.05-.43-.354-.846.569-.528.16-.951.176-1.557l.012-.099.004-.054c-.035-.586-.258.07-.03-.874l.113-.817c.154-1.554-.346-3.844.57-4.58.94-.754 2.011-.071 2.88-.456l.058-.17c.027-.14.034-.134.046-.303l-.004-2.089-5.089.007c-.522.05-.24-.136-.436.287l-.232-.314c-1.177.14-1.048-.087-2.16.4-.815.355-.385-.415-1.16.198-.219.172-.3-.023-.21.275ZM63.618 3.247l-.227.296c-.261.213.207.02-.11.018-.411-.002.095-.09-.163-.02l.336.938c-.188.714.22-.575-.107.238-.129.322-.063-.24-.1.29 1.036.208 2.178-.089 3.263.234.002 1.92-.073 3.9-.01 5.806.034 1.065.364 2.628-.972 3.241-.253.116-.45-.004-.703.15l-.224.253c-.242-.416-.016-.201-.326-.33-.472.711-.214.493-.831.461-.08.546-.103.083-.345.214.127.473-.124.199.35.36-.333.667.347-.477-.152.184-.129.17-.085-.082-.143.219l.673.905c-.29-.02.068-.04-.118-.015-.116.015-.231-.248-.057.254 1.118.44 1.005-.553 2.186-.272.501.12.292.136 1.004.146l-.078.147c.385-.495.544-.323 1.198-.374l.11.396.542.024c-.09-.355-.063-.179-.317-.45 1.288 0 .182.304.816.47.261-.005.516-.063.706-.065.207-.003.47.052.793.066 1.657.073 1.073-.042 1.394-.448.193.204.038.43.453.424.537-.007.065.022.285-.086.143-.463.104-.794.104-1.302 0-.243.02-.46.024-.688.021-1.07-.614-.39-3.31-.511l-.222-.435c-.026-.117.046-.274-.262-.592.367-.345.333-.513.233-1.104l-.056-.729c-.072-.342-.219.022-.038-.68l.04-.144.012-.078c.27-1.625-.091-3.693.263-4.692.084-.235.047-.154.158-.31.802-1.124 2.667-.283 3.112-.7.135-.126.103-.997.102-1.18-.004-.46 0-.92-.002-1.38l-5.088.005c-.588.056-.211-.198-.436.288-.175-.285-.056-.312-.926-.272-.581.027-.722-.03-1.238.23-1.165.59-.743-.378-1.501.423-.135.141-.177-.086-.096.177Zm11.561 19.675c.678 2.047 1.363 4.2 2.116 6.338.733 2.08 1.436 4.307 2.231 6.3l.47-.347c.326 1.334.102.94-.145 1.392.428.356.15.307.832.69.28-.206-.008.062.17-.172.087-.115.08-.138.177-.287a.19.19 0 0 1 .027.092c.064.64.335.598.436.626.145-.222.093.025.02-.261-.093-.36-.005-.021-.15-.314.296-.08.671-.17.851-.222.628-.184 1.26-1.101 1.27-1.105.016-.005.169.047.345.094-.015-.785.023-.214.24-.864.26-.779-.402-1.326.376-2.047l.102-.075c.658-.468.181-.223.687-1.505.736-1.865 1.057-2.993 1.678-4.976.275-.878 1.062-2.54 1.068-3.378-.758.116-.747.395-.817.556l-.036.087-.04.086c-.008.02-.02.06-.04.085l-.284-.825c-.348.172-.197-.14-.324.445-.322-.493.212-.272-.32-.404-.355.248-.072.057-.345.433l-.232-.47c-.415.412.031.195-.363.236-.29.031-.151-.219-.376.293-.663 1.512-2.62 8.198-3.147 9.05a.928.928 0 0 1-.054.076c-.376-1.505-1.76-5.065-2.419-7.194-.087-.281-.107-.343-.25-.57-.234-.368-.113.01-.28-.55-.317-1.073.052-.567-.702-.754.02-.026.054-.093.063-.074l.262-.512-1.239.033c.449.109.504.083.616.413-.969-.246-1.042-.917-2.474-.419Zm26.727-20.527c.689 2.043 1.368 4.21 2.116 6.337.733 2.086 1.448 4.341 2.231 6.3.022-.018.05-.084.06-.062 0 0 .009-.146.37-.177.01-.001.044 0 .064.008.291.937.128.732-.17 1.278l.782.717c.358-.25.031.069.398-.488l.054.184c.056.174 0 .11.087.269.163.296-.075.155.322.265.16-.246.017-.278-.13-.576 1.04-.278 1.33-.294 2.015-1.165.157-.2-.04-.197.45-.066-.014-.784.023-.216.24-.865.334-.996-.312-.416.08-1.546.354-1.022.563-.13.818-1.167l.397-1.258c.623-1.598 2.609-7.265 2.618-8.01-.394.059-.279.09-.345.11-.467.152-.287.03-.548.618-.009.02-.022.061-.042.086l-.284-.824c-.348.171-.195-.14-.324.443-.321-.496.216-.27-.319-.403-.349.246-.077.065-.345.433-.012-.024-.023-.093-.028-.076-.051.158-.053-.13-.066-.157l-.04-.08c-.011-.02-.038-.06-.047-.078a.758.758 0 0 0-.051-.079c-.416.412.03.195-.364.236-.288.03-.151-.219-.375.292l-2.878 8.472c-.028.08-.096.272-.13.343a3.17 3.17 0 0 1-.089.16l-.104.153c-.352-1.418-1.064-3.117-1.561-4.547-.476-1.373-.64-2.339-1.221-3.347l-.319-1.168c-.389.069-.192.072-.551-.015.317-.416.228-.04.325-.578l-1.238.033c.452.113.503.08.615.413-1.029-.257-1.092-.9-2.473-.418ZM93.757 17.03l1.078-.019c.195-.381-.186-.058.807-.29 1.361-.318.443.045.732-.651 1.154-.4.002.3.803-.035.577-.242.29-.434.651-.732.398-.327.397.447 1.375-1.08.597-.934 1.476-2.662 1.352-4.107-.217-.094-.485-.045-.875.081.173-.275.211-.17.253-.338-.929-.677-1.02-.454-2.82-.454-1.029 0-2.333-.07-3.327.03v2.522c1.123.11 2.177-.037 3.312.161-1.1 3.062-4.152 2.978-5.41.672-.302-.555-.785-1.634-.808-2.32-.035-1.033.02-2.299.383-2.884.386-.623.357-1.007 1.077-1.728 1.334-1.335 3.392-.917 4.156.497h3.394c-.766-1.783-2.787-3.809-5.325-3.978-4.479-.299-7.481 4.6-6.488 9.155.12.553.31.737.491 1.274.552 1.641.992 1.604 1.418 2.068.744.81.274-.057.917.82l.103.133c.045.051.12.113.181.173.416.41 1.392.892 1.986.852.528-.035.017-.036.584.178Zm26.495 20.227c-.097.408.219.301 1.309.282.166-.328.018-.175.251-.187.33-.016.183-.015.556-.103 1.365-.32.44.047.735-.651 1.147-.403.004.298.799-.035.577-.24.294-.436.653-.732.392-.323.404.44 1.375-1.08.598-.936 1.479-2.664 1.352-4.107-.455-.196-.038-.028-.339.002-.134.014-.216-.025-.536.08.173-.278.212-.17.253-.34-.026-.018-.069-.074-.081-.05-.016.028-.086-.056-.154-.102a9.898 9.898 0 0 0-.07-.05c-.02-.012-.047-.034-.068-.047-.07-.046-.061-.053-.133-.09-.47-.241-5.178-.13-5.641-.086l-.001 2.525c1.133.109 2.178-.042 3.312.16-.945 2.86-4.046 3.142-5.409.672-.308-.558-.785-1.63-.808-2.32a12.559 12.559 0 0 1 .193-2.515l.101-.245c.009-.017.033-.043.043-.06.011-.018.034-.045.046-.064.395-.637.281-.928 1.078-1.728 1.335-1.34 3.397-.915 4.156.497h3.393c-.746-1.74-2.704-3.709-5.114-3.96-3.748-.393-6.727 3.124-6.871 6.565-.105 2.514.247 2.577.689 3.936.174.535.556 1.338 1.073 1.72l.326.252c.237.255-.06.074.263.3.369.26.148-.154.647.525l.103.134c.508.584 1.778 1.29 2.519.902ZM75.577 3.188c.09.506.216.453.115 1.034l-.227-.374c-.263-.268.145-.151-.135-.068-.149.423-.086 1.46-.065 1.997.039 1.013.591.55.674 1.501l-.666-.543c-.005.174.016.783.017.804.032.418.182.426.414.693l-.254.036c-.517-.02.186-.159-.19-.036.006 1.248.61.485.687 1.522.008.103-.009.968-.025 1.028-.091.348-.692.621-.538 2.61.067.866-.275.777.012 1.375.147.308.15.1.188.386-.405.233.19-.078-.339-.037.114.371.175.375.039.74.315.232.094.12.38.045v.595c.426-.015.657-.023.81.372-.401-.224-.319-.248-.626.045l.33.11c.808.112.805-.185.832-.207.256-.21-.007-.08.328-.198l.14-.03c.014-.005.048-.013.062-.02.448-.175-.106-.226.446-.213-.083.412-.17.335.036.66.513-.502.06-2.908.173-4.037.076-.756-.05-1.273-.021-2.018.026-.701.122-1.48.137-2.214.208.137 1.622 3.346 2.124 4.196.431.732.363.152.526.643.09.27.155.986.381 1.37.297.504-.018.187.368.34-.29-.538-.209-.432-.192-.59.027-.253.006-.126.09-.244.414.634.023.469.68.92-.237.221-.276.041-.536.138.113 2.02 3.884 2.017 3.86-.09-.005-.524.102-.819.033-1.2-.087-.487-.164-.1-.122-.68l.009-.229c.019-.287.085-.297-.018-.499-.013-.024-.07-.099-.085-.12-.389-.57.058.468-.096-.128l.347-.118c-.173-1.363-.188-.603-.36-1.202-.256-.887.281-1.12.302-1.144-.128-.131.007.008-.168-.139l-.247-.213.438-.205c-.016-.325-.065-.238-.07-.266-.09-.447.04-.202.019-.581-.024-.41.01.072-.088-.327-.162-.655-.018-.162.045-.659.035-.27-.066-.238-.121-.66l.308-.117c-.094-1.113.092-3.676-.2-4.332-.144-.324.1.043-.141-.222l-2.632-.03.061 4.881c.054.16.178.207.29.517.107.297.067.347.01.638-.344.032-.22-.332-.39.073.002.78.135 1.503-.043 2.272L80.026 5.38c-.637-1.184-.454-1.817-1.499-2.588-1.157-.854-2.14-.346-2.95.396Zm26.727 20.528c.089.507.215.449.115 1.034-.328-.348.096-.062-.232-.376-.263-.252.161-.142-.15-.071-.128.44-.066 1.457-.045 2.002.038 1.011.59.55.674 1.501l-.666-.542c-.036 1.186.056 1.066.43 1.496-.152.106-.006.046-.254.036-.528-.02.195-.162-.19-.036.006 1.046.206.522.561 1.064.213.326.108 1.043.155 1.539-.1.197-.27.077-.438.738-.443 1.748-.038 1.494-.194 2.495-.149.955.169.555.241 1.085-.409.235.189-.08-.339-.037.113.37.175.374.039.74.317.234.095.12.38.045v.595c.426-.015.656-.022.81.372-.402-.224-.319-.248-.626.044.022.016.061.005.073.036l.162.057c.998.194.62-.154 1.394-.417.015-.005.048-.014.063-.02l.113-.06c.289-.145-.249-.171.331-.151-.08.415-.169.332.038.658.512-.503.06-2.905.173-4.037.075-.756-.05-1.274-.022-2.018.027-.7.122-1.48.138-2.214.229.15 1.422 2.9 1.673 3.362.203.371.392.858.706 1.158.544.52.063-.056.486 1.268.286.897.354.689.534.76-.079-.148-.163-.238-.189-.416-.048-.325-.045.217-.003-.173.028-.256.006-.125.09-.244.411.632.024.478.68.92-.239.224-.278.042-.536.138.113 2.013 3.885 2.03 3.857-.095-.011-.877.181-.637-.051-1.469l-.036-.405.007-.058.003-.056-.001-.057v-.059c.001-.013.002-.047.004-.06l-.107-.56c-.388-.568.061.47-.095-.127l.288-.094c.008-.003.04-.014.058-.024-.07-.56-.016-.524-.209-.876-.088-.162-.304-.418-.163-1 .145-.6-.075-.012.315-.47l-.352-.296c-.013-.01-.045-.035-.064-.056l.438-.204c-.03-.637-.139-.064-.08-.616.087-.811.101-.067-.098-.612-.155-.428-.029-.12.071-.53.091-.37-.04-.228-.107-.736l.308-.117c-.115-1.365.182-3.98-.341-4.553l-2.632-.032.061 4.882c.129.382.458.346.301 1.155-.345.034-.22-.332-.391.073.003.767.13 1.517-.042 2.273l-1.333-2.607c-.472-.992-.845-1.843-1.335-2.753-.633-1.176-.385-1.768-1.499-2.588-1.162-.854-2.133-.351-2.95.396ZM119.32 3.393c.195.505.445 1.069-.638.666l-.465 1.14c-.016.039-.117.314-.164.437-.628-.056-.133-.111-.434-.141-.021-.002-.244-.452-.203.224.017.276.288.578.06.945-.285-.389.086-.299-.347-.61l-.274.696.396.192c-.601 1.362-.552-.134-.825.92-.335 1.29-.126 2.372.06 3.574.148.96.523.066.835.933.261.725-.109.525.424 1.222.06.08.096.11.154.204.455.728-.109.974.542 1.55.289.256.844.651 1.223.87.397.23.3.175.788.281.616.135.221.053.726.329.439-.308 0-.185.463-.257.44.58 1.121.533 1.876.363 1.005-.227 1.171-.032 1.959-.59 2.017-1.426 1.575-1.598 2.466-2.659.502-.597.22-.903.626-1.589.804-1.358.236-3.15.252-3.252.011-.073.081-.064-.009-.472-.046-.208-.053-.258-.096-.486-.152-.797-.777-1.149-.805-1.176.091-.483.065-.649-.137-.928l-.101.127c-.338.466-.02.22-.34.42-.237-.553.023-.3-.341-1.268-.153-.407.21-.463-.367-1.056-1.199-1.232-3.118-1.867-4.932-1.568-1.611.265-1.154.463-2.372.96Zm.18 3.314.404.193c-.182.441-.071.085-.207.425l-.399 1.723c-.039.45-.033.854-.014 1.303.046 1.084-.092.473-.224 1.165.703.338-.116-.074.239.02.103.028.461-.21.209 1.036.81.065.338.436.708.854l.731.77c.191-.076.272-.117.563-.076.272.485.049.264.131.549l1.858-.449c2.124-.847 3.148-4.107 2.163-6.55-.534-1.324-1.536-2.8-3.078-2.694-.199.014-.289.073-.498.073-.49-.001-.192.117-.445-.182-.059.072-.169.18-.208.217-.022.021-.096.086-.12.11l-.681.723c-1.18 1.454-.495.268-1.132.79ZM53.118 26.414c0 .147-.08.354-.08.375l.08.68c-.21.616-.183-.432-.38.622-.084.443-.129.816-.191 1.268.021-.023.042-.098.053-.078.011.021.042-.059.058-.073.016-.013.044-.05.064-.065.02-.015.05-.04.073-.055.023-.015.06-.032.083-.045l.19-.063c.006.038-.003.704-.011.738-.05.206.04.157-.198.066-.501-.193.092-.148-.193-.085.04.743.38.127.457.935l-.005 4.255c1.722.13 3.38.314 4.517-1.34.164-.239.64-1.071.692-1.29.592-2.516.319-3.942-1.213-5.992-.608-.814-3.038-.674-3.996-.674v.821ZM14.61 3.094c-.37.757-.285 1.054.537 1.43 2.911 1.337 4.007-.645 5.427-.93 1.495-.302 2.395.829 3.647 1.242 1.429.47 4.745-.55 3.043-1.977-.12.032-1.801 1.23-3.089.626-1.068-.502-1.499-1.202-3.077-1.182-2.447.03-3.104 2.28-5.613.952-.402-.213-.364-.241-.875-.16Zm.738 31.118c-1.477.98.537 2.39 2.742 2.047.955-.148.905-.134 1.608-.591 2.759-1.797 3.052-.017 4.758.476 3.406.986 4.94-2.374 2.928-1.604-.68.26-.981.467-1.891.44-1.201-.037-2.069-1.06-3.27-1.349-2.356-.565-3.06 1.779-5.366 1.301-.71-.147-.99-.514-1.509-.72Zm1.816-.666c2.065-.002 2.651-.982 3.704-1.37 1.431-.53 2.44.835 3.767 1.206 1.874.525 3.15-.669 3.978-.99 2.453-.954 3.206 1.337 3.749-.348-.827-1.577-3.505-1.465-4.901-.587-.75.473-1.635.984-2.771.47-.799-.362-1.383-.894-2.37-1.126-2.338-.55-3.114 1.682-5.503 1.272-.553-.095-.85-.463-1.217-.568-.508-.147-.877.33-.717.838.165.52 1.646 1.204 2.28 1.203Zm-6.097-3.66c.77.125 1.42-.663 2.277-.712 1.726-.1 2.365 1.912 4.7 1.42 1.896-.4 1.703-.975 3.311-1.01 2.095-.044 1.444.3 3.324.94 1.06.36 2.54-.057 3.352-.735.397-.331.185-.702-.044-1.09-.894-.081-1.044.554-2.259.568-2.483.03-2.606-2.873-6.867-.424-2.805 1.612-4.104-2.214-6.963-.612-.69.386-1.708.472-.83 1.655Zm-.018-2.81c2.064-.26 1.34-1.583 4.498.154.82.45 1.38.566 2.544.453 1.826-.176 2.683-2.089 4.546-1.07.63.345 1.245.882 1.968 1.042.88.194 2.012.088 2.643-.288 1.612-.96.922-1.488.563-1.526-.516-.054-.935.61-2.43.566-.849-.025-1.48-.586-2.111-.908-1.98-1.009-2.927-.174-4.459.6-1.936.977-2.966-.428-4.453-.931-.916-.31-1.736-.17-2.487.216-.85.437-1.304.676-.822 1.693Zm-.69-3.747c.085.405.135.5.441.835 1.743-.03 1.577-1.549 4.354.17 1.862 1.151 3.047.534 4.513-.314 2.17-1.255 2.531-.14 4.232.608 1.317.58 2.486.35 3.601-.419.374-.257.511-.484.286-.926-.415-.816-1.016.12-1.903.236-2.672.352-3.578-2.735-6.823-.583-2.04 1.353-3.05.26-4.28-.326-1.716-.817-3.242-.28-4.421.72Zm-4.037-2.546c.601 1.289 2.847 1.72 4.586.814.694-.362 1.278-.978 2.323-.962.943.014 1.53.677 2.247 1.04 2.199 1.111 3.307-.148 4.755-.819 2.303-1.068 2.228 1.352 5.661 1.159.139-.495.069-.854-.015-1.271-1.07-.168-1.32-.053-2.226-.56-3.764-2.106-3.739.48-6.605.48-2.048.001-2.63-2.312-5.534-.91-1.14.55-1.06.959-2.798.91-.248-.008-.557-.03-.798-.108-.442-.145-.32-.207-.603-.366-.542-.305-.853.143-.993.593Zm-3.62-2.264c.838-.037 1.642-1.123 2.918-.69.759.259 2.968 2.524 5.757.608 2.71-1.863 3.07.67 5.667.755 1.35.044 2.026-.598 2.983-1.02 1.513-.668 1.529-.538 2.86.21 1.133.638 1.544.793 3.02.826.163-2.111-.056-.726-2.29-1.915-.682-.363-1.697-.989-2.705-.799-1.145.217-1.532.644-2.41 1.07-3.23 1.572-3.292-2.943-7.952-.084-.849.521-2.178.478-3.023-.06-1.772-1.127-2.607-1.324-4.482-.392-.699.347-1.005.843-.344 1.491Zm-.241-2.852c1.093.02 1.766-.945 3.054-.665.993.216 1.544 1.036 2.666 1.27 3.009.628 3.853-2.25 6.033-1.06 3.152 1.72 2.897 1.468 5.671.116 2.872-1.4 3.459 1.771 5.956.875l.132-1.045c-.581-.121-1.088-.149-1.643-.35-1.125-.406-2.576-1.88-4.616-.822-.852.442-1.584 1.256-2.997 1.03-.834-.132-1.766-1.034-2.758-1.312-2.642-.74-3.752 2.541-6.368.826-1.574-1.032-2.886-1.253-4.667-.323-.742.387-.589.715-.463 1.46Zm.076-2.819c1.086-.107 2.066-1.114 3.326-.557 2.845 1.258 2.51 2.064 6.128.084 1.453-.794 2.272-.055 3.225.527 3.202 1.957 4.41-1.234 6.435-.797 1.579.341 2.304 2.006 4.802 1.195.787-.256.823-.44 1.361-.788l-.01-.895c-1.08-.087-2.158 1.048-3.63.301-1.021-.518-1.83-1.244-3.311-1.115-1.362.12-1.913 1.14-3.006 1.33-1.774.309-2.162-.569-3.378-1.065-2.96-1.206-4.194 2.28-6.706.827-1.195-.692-1.416-1.113-3.225-1.102-1.312.008-2.561.755-2.01 2.055Zm31.267-3.2c-.442-.251-.646-.253-1.174-.407-.454-.132-.811-.385-1.173-.601-3.983-2.38-4.816 1.928-7.597.314-1.924-1.116-2.814-1.577-4.899-.31-.778.474-1.56.836-2.681.587-.369-.082-2.223-1.27-1.845.244.13.525 1.462 1.13 2.165 1.176 1.228.082 1.787-.191 2.604-.706 3.692-2.325 3.422 2.055 7.613.322.508-.21 2.247-1.742 3.7-.673.81.596 3.406 1.966 3.287.054Zm-19.098-3.9c-1.125 1.68 2.147 2.882 4.487 1.378 3.115-2.002 3.283.708 5.954.703 2.213-.004 3.122-2.229 5.336-1.14.632.311 1.096.685 1.399-.334-.052-.525-2.294-2.345-5.068-.412-1.203.839-2.178.64-3.386-.074-4.21-2.485-4.504 1.72-7.61.335-.436-.194-.576-.44-1.112-.456Z" clip-rule="evenodd"/></svg>